<mxfile host="app.diagrams.net" agent="Mozilla/5.0 (Windows NT 10.0; Win64; x64; rv:136.0) Gecko/20100101 Firefox/136.0" version="26.0.16">
  <diagram name="Page-1" id="ZIw89rF1Ac-oXAki9PwV">
    <mxGraphModel dx="2206" dy="1203" grid="1" gridSize="10" guides="1" tooltips="1" connect="1" arrows="1" fold="1" page="1" pageScale="1" pageWidth="850" pageHeight="1100" math="0" shadow="0">
      <root>
        <mxCell id="0" />
        <mxCell id="1" parent="0" />
        <mxCell id="WZ02eXmGHrjbgZBKkpN1-46" style="edgeStyle=orthogonalEdgeStyle;rounded=0;orthogonalLoop=1;jettySize=auto;html=1;entryX=0.75;entryY=0;entryDx=0;entryDy=0;" edge="1" parent="1" source="WZ02eXmGHrjbgZBKkpN1-19" target="WZ02eXmGHrjbgZBKkpN1-42">
          <mxGeometry relative="1" as="geometry">
            <Array as="points">
              <mxPoint x="160" y="270" />
            </Array>
          </mxGeometry>
        </mxCell>
        <mxCell id="WZ02eXmGHrjbgZBKkpN1-60" value="2" style="edgeLabel;html=1;align=center;verticalAlign=middle;resizable=0;points=[];" vertex="1" connectable="0" parent="WZ02eXmGHrjbgZBKkpN1-46">
          <mxGeometry x="0.1142" y="1" relative="1" as="geometry">
            <mxPoint as="offset" />
          </mxGeometry>
        </mxCell>
        <mxCell id="WZ02eXmGHrjbgZBKkpN1-63" style="edgeStyle=orthogonalEdgeStyle;rounded=0;orthogonalLoop=1;jettySize=auto;html=1;entryX=0.25;entryY=0;entryDx=0;entryDy=0;" edge="1" parent="1" source="WZ02eXmGHrjbgZBKkpN1-19" target="WZ02eXmGHrjbgZBKkpN1-62">
          <mxGeometry relative="1" as="geometry">
            <Array as="points">
              <mxPoint x="370" y="270" />
            </Array>
          </mxGeometry>
        </mxCell>
        <mxCell id="WZ02eXmGHrjbgZBKkpN1-65" value="4" style="edgeLabel;html=1;align=center;verticalAlign=middle;resizable=0;points=[];" vertex="1" connectable="0" parent="WZ02eXmGHrjbgZBKkpN1-63">
          <mxGeometry x="0.1684" y="1" relative="1" as="geometry">
            <mxPoint as="offset" />
          </mxGeometry>
        </mxCell>
        <mxCell id="WZ02eXmGHrjbgZBKkpN1-19" value="Central Server" style="rounded=0;whiteSpace=wrap;html=1;fillColor=#d5e8d4;strokeColor=#82b366;" vertex="1" parent="1">
          <mxGeometry x="200" y="220" width="120" height="60" as="geometry" />
        </mxCell>
        <mxCell id="WZ02eXmGHrjbgZBKkpN1-21" style="edgeStyle=orthogonalEdgeStyle;rounded=0;orthogonalLoop=1;jettySize=auto;html=1;" edge="1" parent="1" source="WZ02eXmGHrjbgZBKkpN1-20">
          <mxGeometry relative="1" as="geometry">
            <mxPoint x="280" y="220" as="targetPoint" />
            <Array as="points">
              <mxPoint x="280" y="220" />
            </Array>
          </mxGeometry>
        </mxCell>
        <mxCell id="WZ02eXmGHrjbgZBKkpN1-59" value="1" style="edgeLabel;html=1;align=center;verticalAlign=middle;resizable=0;points=[];" vertex="1" connectable="0" parent="WZ02eXmGHrjbgZBKkpN1-21">
          <mxGeometry x="-0.1049" y="1" relative="1" as="geometry">
            <mxPoint as="offset" />
          </mxGeometry>
        </mxCell>
        <mxCell id="WZ02eXmGHrjbgZBKkpN1-20" value="External Service" style="rounded=0;whiteSpace=wrap;html=1;" vertex="1" parent="1">
          <mxGeometry x="200" y="60" width="120" height="60" as="geometry" />
        </mxCell>
        <mxCell id="WZ02eXmGHrjbgZBKkpN1-36" style="edgeStyle=orthogonalEdgeStyle;rounded=0;orthogonalLoop=1;jettySize=auto;html=1;entryX=0.35;entryY=1.034;entryDx=0;entryDy=0;entryPerimeter=0;" edge="1" parent="1" source="WZ02eXmGHrjbgZBKkpN1-19" target="WZ02eXmGHrjbgZBKkpN1-20">
          <mxGeometry relative="1" as="geometry">
            <Array as="points">
              <mxPoint x="242" y="190" />
              <mxPoint x="242" y="190" />
            </Array>
          </mxGeometry>
        </mxCell>
        <mxCell id="WZ02eXmGHrjbgZBKkpN1-68" value="6" style="edgeLabel;html=1;align=center;verticalAlign=middle;resizable=0;points=[];" vertex="1" connectable="0" parent="WZ02eXmGHrjbgZBKkpN1-36">
          <mxGeometry x="0.0567" y="1" relative="1" as="geometry">
            <mxPoint as="offset" />
          </mxGeometry>
        </mxCell>
        <mxCell id="WZ02eXmGHrjbgZBKkpN1-47" style="edgeStyle=orthogonalEdgeStyle;rounded=0;orthogonalLoop=1;jettySize=auto;html=1;entryX=-0.005;entryY=0.337;entryDx=0;entryDy=0;entryPerimeter=0;" edge="1" parent="1" source="WZ02eXmGHrjbgZBKkpN1-42" target="WZ02eXmGHrjbgZBKkpN1-19">
          <mxGeometry relative="1" as="geometry">
            <mxPoint x="140" y="240" as="targetPoint" />
            <Array as="points">
              <mxPoint x="100" y="240" />
            </Array>
          </mxGeometry>
        </mxCell>
        <mxCell id="WZ02eXmGHrjbgZBKkpN1-66" value="3" style="edgeLabel;html=1;align=center;verticalAlign=middle;resizable=0;points=[];" vertex="1" connectable="0" parent="WZ02eXmGHrjbgZBKkpN1-47">
          <mxGeometry x="-0.3926" y="-2" relative="1" as="geometry">
            <mxPoint as="offset" />
          </mxGeometry>
        </mxCell>
        <mxCell id="WZ02eXmGHrjbgZBKkpN1-42" value="Database" style="rounded=0;whiteSpace=wrap;html=1;fillColor=#d5e8d4;strokeColor=#82b366;" vertex="1" parent="1">
          <mxGeometry x="70" y="410" width="120" height="60" as="geometry" />
        </mxCell>
        <mxCell id="WZ02eXmGHrjbgZBKkpN1-64" style="edgeStyle=orthogonalEdgeStyle;rounded=0;orthogonalLoop=1;jettySize=auto;html=1;" edge="1" parent="1" source="WZ02eXmGHrjbgZBKkpN1-62" target="WZ02eXmGHrjbgZBKkpN1-19">
          <mxGeometry relative="1" as="geometry">
            <mxPoint x="400.0000000000002" y="240" as="targetPoint" />
            <Array as="points">
              <mxPoint x="430" y="240" />
            </Array>
          </mxGeometry>
        </mxCell>
        <mxCell id="WZ02eXmGHrjbgZBKkpN1-67" value="5" style="edgeLabel;html=1;align=center;verticalAlign=middle;resizable=0;points=[];" vertex="1" connectable="0" parent="WZ02eXmGHrjbgZBKkpN1-64">
          <mxGeometry x="-0.4356" y="-1" relative="1" as="geometry">
            <mxPoint as="offset" />
          </mxGeometry>
        </mxCell>
        <mxCell id="WZ02eXmGHrjbgZBKkpN1-62" value="LLM Controller" style="rounded=0;whiteSpace=wrap;html=1;fillColor=#d5e8d4;strokeColor=#82b366;" vertex="1" parent="1">
          <mxGeometry x="340" y="410" width="120" height="60" as="geometry" />
        </mxCell>
        <mxCell id="WZ02eXmGHrjbgZBKkpN1-69" value="1. Request" style="swimlane;fontStyle=0;childLayout=stackLayout;horizontal=1;startSize=30;horizontalStack=0;resizeParent=1;resizeParentMax=0;resizeLast=0;collapsible=1;marginBottom=0;whiteSpace=wrap;html=1;" vertex="1" parent="1">
          <mxGeometry x="500" y="100" width="140" height="90" as="geometry" />
        </mxCell>
        <mxCell id="WZ02eXmGHrjbgZBKkpN1-70" value="question: string" style="text;strokeColor=none;fillColor=none;align=left;verticalAlign=middle;spacingLeft=4;spacingRight=4;overflow=hidden;points=[[0,0.5],[1,0.5]];portConstraint=eastwest;rotatable=0;whiteSpace=wrap;html=1;" vertex="1" parent="WZ02eXmGHrjbgZBKkpN1-69">
          <mxGeometry y="30" width="140" height="30" as="geometry" />
        </mxCell>
        <mxCell id="WZ02eXmGHrjbgZBKkpN1-71" value="&lt;div&gt;session: obj&lt;/div&gt;" style="text;strokeColor=none;fillColor=none;align=left;verticalAlign=middle;spacingLeft=4;spacingRight=4;overflow=hidden;points=[[0,0.5],[1,0.5]];portConstraint=eastwest;rotatable=0;whiteSpace=wrap;html=1;" vertex="1" parent="WZ02eXmGHrjbgZBKkpN1-69">
          <mxGeometry y="60" width="140" height="30" as="geometry" />
        </mxCell>
        <mxCell id="WZ02eXmGHrjbgZBKkpN1-73" value="2. Request" style="swimlane;fontStyle=0;childLayout=stackLayout;horizontal=1;startSize=30;horizontalStack=0;resizeParent=1;resizeParentMax=0;resizeLast=0;collapsible=1;marginBottom=0;whiteSpace=wrap;html=1;" vertex="1" parent="1">
          <mxGeometry x="500" y="230" width="140" height="60" as="geometry" />
        </mxCell>
        <mxCell id="WZ02eXmGHrjbgZBKkpN1-75" value="&lt;div&gt;question: string&lt;/div&gt;" style="text;strokeColor=none;fillColor=none;align=left;verticalAlign=middle;spacingLeft=4;spacingRight=4;overflow=hidden;points=[[0,0.5],[1,0.5]];portConstraint=eastwest;rotatable=0;whiteSpace=wrap;html=1;" vertex="1" parent="WZ02eXmGHrjbgZBKkpN1-73">
          <mxGeometry y="30" width="140" height="30" as="geometry" />
        </mxCell>
        <mxCell id="WZ02eXmGHrjbgZBKkpN1-77" value="3. Response" style="swimlane;fontStyle=0;childLayout=stackLayout;horizontal=1;startSize=30;horizontalStack=0;resizeParent=1;resizeParentMax=0;resizeLast=0;collapsible=1;marginBottom=0;whiteSpace=wrap;html=1;" vertex="1" parent="1">
          <mxGeometry x="670" y="230" width="140" height="90" as="geometry" />
        </mxCell>
        <mxCell id="WZ02eXmGHrjbgZBKkpN1-78" value="context: string[]" style="text;strokeColor=none;fillColor=none;align=left;verticalAlign=middle;spacingLeft=4;spacingRight=4;overflow=hidden;points=[[0,0.5],[1,0.5]];portConstraint=eastwest;rotatable=0;whiteSpace=wrap;html=1;" vertex="1" parent="WZ02eXmGHrjbgZBKkpN1-77">
          <mxGeometry y="30" width="140" height="30" as="geometry" />
        </mxCell>
        <mxCell id="WZ02eXmGHrjbgZBKkpN1-79" value="metadata: string[]" style="text;strokeColor=none;fillColor=none;align=left;verticalAlign=middle;spacingLeft=4;spacingRight=4;overflow=hidden;points=[[0,0.5],[1,0.5]];portConstraint=eastwest;rotatable=0;whiteSpace=wrap;html=1;" vertex="1" parent="WZ02eXmGHrjbgZBKkpN1-77">
          <mxGeometry y="60" width="140" height="30" as="geometry" />
        </mxCell>
        <mxCell id="WZ02eXmGHrjbgZBKkpN1-81" value="4. Request" style="swimlane;fontStyle=0;childLayout=stackLayout;horizontal=1;startSize=30;horizontalStack=0;resizeParent=1;resizeParentMax=0;resizeLast=0;collapsible=1;marginBottom=0;whiteSpace=wrap;html=1;" vertex="1" parent="1">
          <mxGeometry x="500" y="350" width="140" height="90" as="geometry" />
        </mxCell>
        <mxCell id="WZ02eXmGHrjbgZBKkpN1-82" value="prompt: string" style="text;strokeColor=none;fillColor=none;align=left;verticalAlign=middle;spacingLeft=4;spacingRight=4;overflow=hidden;points=[[0,0.5],[1,0.5]];portConstraint=eastwest;rotatable=0;whiteSpace=wrap;html=1;" vertex="1" parent="WZ02eXmGHrjbgZBKkpN1-81">
          <mxGeometry y="30" width="140" height="30" as="geometry" />
        </mxCell>
        <mxCell id="WZ02eXmGHrjbgZBKkpN1-83" value="context: string[]" style="text;strokeColor=none;fillColor=none;align=left;verticalAlign=middle;spacingLeft=4;spacingRight=4;overflow=hidden;points=[[0,0.5],[1,0.5]];portConstraint=eastwest;rotatable=0;whiteSpace=wrap;html=1;" vertex="1" parent="WZ02eXmGHrjbgZBKkpN1-81">
          <mxGeometry y="60" width="140" height="30" as="geometry" />
        </mxCell>
        <mxCell id="WZ02eXmGHrjbgZBKkpN1-85" value="5. Response" style="swimlane;fontStyle=0;childLayout=stackLayout;horizontal=1;startSize=30;horizontalStack=0;resizeParent=1;resizeParentMax=0;resizeLast=0;collapsible=1;marginBottom=0;whiteSpace=wrap;html=1;" vertex="1" parent="1">
          <mxGeometry x="670" y="350" width="140" height="60" as="geometry" />
        </mxCell>
        <mxCell id="WZ02eXmGHrjbgZBKkpN1-86" value="answer: string" style="text;strokeColor=none;fillColor=none;align=left;verticalAlign=middle;spacingLeft=4;spacingRight=4;overflow=hidden;points=[[0,0.5],[1,0.5]];portConstraint=eastwest;rotatable=0;whiteSpace=wrap;html=1;" vertex="1" parent="WZ02eXmGHrjbgZBKkpN1-85">
          <mxGeometry y="30" width="140" height="30" as="geometry" />
        </mxCell>
        <mxCell id="WZ02eXmGHrjbgZBKkpN1-89" value="6. Response" style="swimlane;fontStyle=0;childLayout=stackLayout;horizontal=1;startSize=30;horizontalStack=0;resizeParent=1;resizeParentMax=0;resizeLast=0;collapsible=1;marginBottom=0;whiteSpace=wrap;html=1;" vertex="1" parent="1">
          <mxGeometry x="670" y="100" width="140" height="90" as="geometry" />
        </mxCell>
        <mxCell id="WZ02eXmGHrjbgZBKkpN1-90" value="answer: string" style="text;strokeColor=none;fillColor=none;align=left;verticalAlign=middle;spacingLeft=4;spacingRight=4;overflow=hidden;points=[[0,0.5],[1,0.5]];portConstraint=eastwest;rotatable=0;whiteSpace=wrap;html=1;" vertex="1" parent="WZ02eXmGHrjbgZBKkpN1-89">
          <mxGeometry y="30" width="140" height="30" as="geometry" />
        </mxCell>
        <mxCell id="WZ02eXmGHrjbgZBKkpN1-91" value="session: obj" style="text;strokeColor=none;fillColor=none;align=left;verticalAlign=middle;spacingLeft=4;spacingRight=4;overflow=hidden;points=[[0,0.5],[1,0.5]];portConstraint=eastwest;rotatable=0;whiteSpace=wrap;html=1;" vertex="1" parent="WZ02eXmGHrjbgZBKkpN1-89">
          <mxGeometry y="60" width="140" height="30" as="geometry" />
        </mxCell>
        <mxCell id="WZ02eXmGHrjbgZBKkpN1-93" value="Legend" style="swimlane;whiteSpace=wrap;html=1;" vertex="1" parent="1">
          <mxGeometry x="20" y="540" width="810" height="380" as="geometry" />
        </mxCell>
        <mxCell id="WZ02eXmGHrjbgZBKkpN1-94" value="External Component" style="rounded=0;whiteSpace=wrap;html=1;" vertex="1" parent="WZ02eXmGHrjbgZBKkpN1-93">
          <mxGeometry x="20" y="40" width="120" height="60" as="geometry" />
        </mxCell>
        <mxCell id="WZ02eXmGHrjbgZBKkpN1-95" value="&lt;div align=&quot;left&quot;&gt;This component is an external component that may receive/send data, but is not implemented by development team&lt;/div&gt;" style="text;html=1;align=left;verticalAlign=top;whiteSpace=wrap;rounded=0;" vertex="1" parent="WZ02eXmGHrjbgZBKkpN1-93">
          <mxGeometry x="150" y="40" width="360" height="50" as="geometry" />
        </mxCell>
        <mxCell id="WZ02eXmGHrjbgZBKkpN1-96" value="Internal Component" style="rounded=0;whiteSpace=wrap;html=1;fillColor=#d5e8d4;strokeColor=#82b366;" vertex="1" parent="WZ02eXmGHrjbgZBKkpN1-93">
          <mxGeometry x="20" y="115" width="120" height="60" as="geometry" />
        </mxCell>
        <mxCell id="WZ02eXmGHrjbgZBKkpN1-97" value="&lt;div align=&quot;left&quot;&gt;This component may receive/send data, and is implemented by development team&lt;/div&gt;" style="text;html=1;align=left;verticalAlign=top;whiteSpace=wrap;rounded=0;" vertex="1" parent="WZ02eXmGHrjbgZBKkpN1-93">
          <mxGeometry x="150" y="120" width="360" height="50" as="geometry" />
        </mxCell>
        <mxCell id="WZ02eXmGHrjbgZBKkpN1-98" value="" style="endArrow=classic;html=1;rounded=0;" edge="1" parent="WZ02eXmGHrjbgZBKkpN1-93">
          <mxGeometry width="50" height="50" relative="1" as="geometry">
            <mxPoint x="50" y="240" as="sourcePoint" />
            <mxPoint x="100" y="190" as="targetPoint" />
          </mxGeometry>
        </mxCell>
        <mxCell id="WZ02eXmGHrjbgZBKkpN1-99" value="#" style="edgeLabel;html=1;align=center;verticalAlign=middle;resizable=0;points=[];" vertex="1" connectable="0" parent="WZ02eXmGHrjbgZBKkpN1-98">
          <mxGeometry x="-0.0914" relative="1" as="geometry">
            <mxPoint as="offset" />
          </mxGeometry>
        </mxCell>
        <mxCell id="WZ02eXmGHrjbgZBKkpN1-100" value="&lt;div align=&quot;left&quot;&gt;The arrow represents a transfer of data. Number on the arrow represents the order of transfer and number of data package accordingly &lt;br&gt;&lt;/div&gt;" style="text;html=1;align=left;verticalAlign=top;whiteSpace=wrap;rounded=0;" vertex="1" parent="WZ02eXmGHrjbgZBKkpN1-93">
          <mxGeometry x="150" y="190" width="360" height="50" as="geometry" />
        </mxCell>
        <mxCell id="WZ02eXmGHrjbgZBKkpN1-101" value="#. Request/Response" style="swimlane;fontStyle=0;childLayout=stackLayout;horizontal=1;startSize=30;horizontalStack=0;resizeParent=1;resizeParentMax=0;resizeLast=0;collapsible=1;marginBottom=0;whiteSpace=wrap;html=1;" vertex="1" parent="WZ02eXmGHrjbgZBKkpN1-93">
          <mxGeometry x="20" y="250" width="120" height="120" as="geometry" />
        </mxCell>
        <mxCell id="WZ02eXmGHrjbgZBKkpN1-102" value="Item 1: type&lt;span style=&quot;white-space: pre;&quot;&gt;&#x9;&lt;/span&gt;&lt;span style=&quot;white-space: pre;&quot;&gt;&#x9;&lt;/span&gt;" style="text;strokeColor=none;fillColor=none;align=left;verticalAlign=middle;spacingLeft=4;spacingRight=4;overflow=hidden;points=[[0,0.5],[1,0.5]];portConstraint=eastwest;rotatable=0;whiteSpace=wrap;html=1;" vertex="1" parent="WZ02eXmGHrjbgZBKkpN1-101">
          <mxGeometry y="30" width="120" height="30" as="geometry" />
        </mxCell>
        <mxCell id="WZ02eXmGHrjbgZBKkpN1-103" value="Item 2: type" style="text;strokeColor=none;fillColor=none;align=left;verticalAlign=middle;spacingLeft=4;spacingRight=4;overflow=hidden;points=[[0,0.5],[1,0.5]];portConstraint=eastwest;rotatable=0;whiteSpace=wrap;html=1;" vertex="1" parent="WZ02eXmGHrjbgZBKkpN1-101">
          <mxGeometry y="60" width="120" height="30" as="geometry" />
        </mxCell>
        <mxCell id="WZ02eXmGHrjbgZBKkpN1-104" value="Item 3: type" style="text;strokeColor=none;fillColor=none;align=left;verticalAlign=middle;spacingLeft=4;spacingRight=4;overflow=hidden;points=[[0,0.5],[1,0.5]];portConstraint=eastwest;rotatable=0;whiteSpace=wrap;html=1;" vertex="1" parent="WZ02eXmGHrjbgZBKkpN1-101">
          <mxGeometry y="90" width="120" height="30" as="geometry" />
        </mxCell>
        <mxCell id="WZ02eXmGHrjbgZBKkpN1-105" value="&lt;div align=&quot;left&quot;&gt;This is a data package. The number in the title matches the arrow representing its transfer on the diagram. The name implies if it is a requet or response. Items in the package are listed and defined in the python class style.&lt;/div&gt;" style="text;html=1;align=left;verticalAlign=top;whiteSpace=wrap;rounded=0;" vertex="1" parent="WZ02eXmGHrjbgZBKkpN1-93">
          <mxGeometry x="150" y="250" width="360" height="120" as="geometry" />
        </mxCell>
        <mxCell id="WZ02eXmGHrjbgZBKkpN1-106" value="Data Flow Diagram" style="text;html=1;align=center;verticalAlign=middle;whiteSpace=wrap;rounded=0;fontStyle=1;labelBackgroundColor=none;labelBorderColor=none;textShadow=0;fontSize=21;" vertex="1" parent="1">
          <mxGeometry width="850" height="30" as="geometry" />
        </mxCell>
        <mxCell id="WZ02eXmGHrjbgZBKkpN1-107" value="Data Flow Diagram" style="text;html=1;align=center;verticalAlign=middle;whiteSpace=wrap;rounded=0;fontStyle=1;labelBackgroundColor=none;labelBorderColor=none;textShadow=0;fontSize=21;" vertex="1" parent="1">
          <mxGeometry width="850" height="30" as="geometry" />
        </mxCell>
      </root>
    </mxGraphModel>
  </diagram>
</mxfile>
